<?xml version="1.0" encoding="UTF-8"?>
<svg version="1.1" viewBox="0 0 2000 2000" width="1280" height="1280" xmlns="http://www.w3.org/2000/svg">
<path transform="translate(1332,218)" d="m0 0 3 1 6 23 3 18 1 10v44l-3 24-5 24-7 22-8 21-12 25-13 22-14 20-11 14-12 14-12 13-18 18-8 7-15 13-14 11-19 14-33 22-20 12-8 16-15 33-11 27 1 1 9-10 11-11 8-7 10-9 14-11 15-11 20-13 22-12 12-26 10-18 8-12 9-12 11-13 14-14 17-13 15-9 15-7 18-6 19-4 9-1h33l22 3 25 6 27 9 25 11 26 13 27 16 27 18 5 5-11 13-7 8-17 17-11 9-18 14-19 12-22 12-26 11-25 8-22 5-28 4-14 1h-34l-31-3-28-5-31-8-10-3-5 1-29 14-23 13-14 8-19 12-18 12-17 12-20 15h-2l-15 45-9 30-12 43-13 54-10 48-9 50-9 58-5 40v4l10-18 8-12 9-12 11-13 14-14 5-4 8-26 9-21 10-17 9-12 9-10 9-9 15-11 15-8 17-6 18-4 9-1h29l22 3 26 6 29 10 21 9 23 11v3l-15 16-7 8-22 22-8 7-11 10-11 9-18 14-24 16-21 12-23 10-21 6-14 2h-18l-16-3-13-5-9-5-4 1-10 9-7 7h-2l-2 4-11 11-9 11-12 15-18 27-12 21-5 10-2 19-4 58-3 71-1 45-1 89h21l35 3 37 5 36 7 36 9 36 12 26 11 16 8 18 10 12 8 13 10 12 11 8 8 11 15 8 16 4 14 1 6v17l-3 14-6 15-9 14-9 11-13 13-17 13-17 11-20 11-25 11-27 10-30 9-34 8-34 6-40 5-25 2-21 1h-56l-35-2-37-4-38-6-36-8-32-9-28-10-23-10-16-8-16-9-12-8-13-10-12-11-8-8-11-15-8-16-4-14-1-6v-17l3-14 6-15 9-14 9-11 13-13 17-13 17-11 20-11 25-11 27-10 30-9 34-8 34-6 40-5 25-2h16l1-65 4-134 2-56 4-80 2-26v-35l-5-43-5-30-6-28-8-30-12-36-3-10-7 1h-29l-31-3-31-6-24-7-20-7-20-9-20-10-21-13-14-10-13-10-14-12-17-16-14-15-9-11-12-15-12-17-14-22-14-25-11-22 1-2 31-9 34-8 37-6 31-3h47l27 3 24 5 24 8 21 10 15 10 11 9 14 14 12 16 10 18 8 20 6 21 5 25 16 16 13 17 11 18 11 23 8 24v3h2l1-7 9-36 10-34 12-37 16-42 13-30 9-20 8-16 14-26 15-25 10-16-1-8-4-22-3-28v-47l3-28 6-29 7-24 8-20 11-23 11-18 10-14 9-11 9-10 11-12 8-7 14-12 18-13 19-12 22-12 21-10 28-11 31-10z" fill="#6DA747"/>
<path transform="translate(913,1463)" d="m0 0h56l35 2 37 4 38 6 36 8 32 9 28 10 23 10 16 8 16 9 12 8 13 10 12 11 8 8 11 15 8 16 4 14 1 6v17l-3 14-6 15-9 14-9 11-13 13-17 13-17 11-20 11-25 11-27 10-30 9-34 8-34 6-40 5-25 2-21 1h-56l-35-2-37-4-38-6-36-8-32-9-28-10-23-10-16-8-16-9-12-8-13-10-12-11-8-8-11-15-8-16-4-14-1-6v-17l3-14 6-15 9-14 9-11 13-13 17-13 17-11 20-11 25-11 27-10 30-9 34-8 34-6 40-5 25-2z" fill="#6B3E12"/>
<path transform="translate(1332,218)" d="m0 0 3 1 6 23 3 18 1 10v44l-3 24-5 24-7 22-8 21-12 25-13 22-14 20-11 14-12 14-12 13-18 18-8 7-15 13-14 11-19 14-33 22-18 11h-2l2-6 12-23 13-23 13-22 10-15 11-16 14-19 9-11 11-13 11-12-11 7-17 12-16 13-11 9-26 24-8 8-7 8-12 13-9 11-13 16-13 18-10 15-2 2-5-23-3-23-1-12v-47l3-28 6-29 7-24 8-20 11-23 11-18 10-14 9-11 9-10 11-12 8-7 14-12 18-13 19-12 22-12 21-10 28-11 31-10z" fill="#99D374"/>
<path transform="translate(669,634)" d="m0 0h47l27 3 24 5 24 8 21 10 15 10 11 9 14 14 12 16 10 18 8 20 6 21 4 21-1 3-7-7-20-15-18-11-16-9-27-12-30-10-28-7-24-4h-3l18 8 16 8 18 11 17 13 14 12 19 19 9 11 10 13 12 18 9 15 11 21 10 23v2l-6 1h-29l-31-3-31-6-24-7-20-7-20-9-20-10-21-13-14-10-13-10-14-12-17-16-14-15-9-11-12-15-12-17-14-22-14-25-11-22 1-2 31-9 34-8 37-6z" fill="#9AD475"/>
<path transform="translate(1354,468)" d="m0 0h33l22 3 25 6 27 9 25 11 26 13 27 16 27 18 5 5-11 13-7 8-17 17-11 9-18 14-19 12-22 12-26 11-25 8-22 5-28 4-14 1h-34l-31-3-28-5-31-8-12-4 3-2 24-10 24-9 30-9 24-6 31-5 17-2h47l-13-6-20-7-22-6-16-3-19-2h-28l-26 3-26 6-26 9-21 9 3-9 11-23 14-23 10-13 11-13 14-14 17-13 15-9 15-7 18-6 19-4z" fill="#9AD475"/>
<path transform="translate(1173,905)" d="m0 0h29l22 3 26 6 29 10 21 9 23 11v3l-15 16-7 8-22 22-8 7-11 10-11 9-18 14-24 16-21 12-23 10-21 6-14 2h-18l-16-3-13-5-12-6 4-4 20-15 18-12 17-10 15-8 16-7 18-7 19-6 7-2h6v-2l-28-2h-26l-21 2-19 4-20 6-20 9-18 11-10 8-1-3 6-20 6-15 8-16 10-16 11-13 12-12 15-11 15-8 17-6 18-4z" fill="#9AD475"/>
</svg>
